<?xml version="1.0" encoding="UTF-8"?>
<svg width="232px" height="64px" viewBox="0 0 232 64" version="1.1" xmlns="http://www.w3.org/2000/svg" xmlns:xlink="http://www.w3.org/1999/xlink">
    <title>blog.hal.codes</title>
    <defs></defs>
    <g id="Page-1" stroke="none" stroke-width="1" fill="none" fill-rule="evenodd">
        <g id="logo-copy" fill="#212326" fill-rule="nonzero">
            <path d="M19.0368481,0 L212.963152,1.5382229e-15 C219.582679,3.22235548e-16 221.983079,0.68923018 224.403079,1.98346038 C226.823079,3.27769057 228.722309,5.17692078 230.01654,7.59692085 C231.31077,10.0169209 232,12.4173213 232,19.0368481 L232,44.9631519 C232,51.5826787 231.31077,53.9830791 230.01654,56.4030792 C228.722309,58.8230792 226.823079,60.7223094 224.403079,62.0165396 C221.983079,63.3107698 219.582679,64 212.963152,64 L19.0368481,64 C12.4173213,64 10.0169209,63.3107698 7.59692085,62.0165396 C5.17692078,60.7223094 3.27769057,58.8230792 1.98346038,56.4030792 C0.68923018,53.9830791 8.10658232e-16,51.5826787 0,44.9631519 L4.57819561e-15,19.0368481 C3.76753738e-15,12.4173213 0.68923018,10.0169209 1.98346038,7.59692085 C3.27769057,5.17692078 5.17692078,3.27769057 7.59692085,1.98346038 C10.0169209,0.68923018 12.4173213,1.21598735e-15 19.0368481,0 Z M20.0061354,22.9207597 C19.9701791,23.2329321 20.1073481,23.5398626 20.3639055,23.7213091 L30.9812131,31.2302434 C31.0609029,31.2866028 31.1304169,31.3561168 31.1867763,31.4358065 C31.4610306,31.8235902 31.3689968,32.3602781 30.9812131,32.6345324 L20.3639055,40.1434667 C20.1073481,40.3249131 19.9701791,40.6318436 20.0061354,40.9440161 L20.4021585,44.3822919 C20.4154782,44.4979336 20.4579218,44.6083049 20.5255164,44.7030751 C20.7461581,45.0124226 21.1757992,45.084333 21.4851468,44.8636914 L38.6336614,32.632542 C38.7112464,32.5772046 38.7790944,32.5093567 38.8344317,32.4317717 C39.1102338,32.0450872 39.0203458,31.5080358 38.6336614,31.2322337 L21.4851468,19.0010844 C21.3903766,18.9334898 21.2800053,18.8910462 21.1643636,18.8777265 C20.7868874,18.8342485 20.4456365,19.1050076 20.4021585,19.4824839 L20.0061354,22.9207597 Z M51.71,45 L56.27,45 L56.27,33.22 C56.27,31.9786605 56.4979977,30.9653373 56.954,30.18 C57.2580015,29.6733308 57.6379977,29.2806681 58.094,29.002 C58.4993354,28.7739989 58.9679973,28.66 59.5,28.66 C60.0320027,28.66 60.5006646,28.7739989 60.906,29.002 C61.3620023,29.2806681 61.7419985,29.6733308 62.046,30.18 C62.5020023,30.9653373 62.73,31.9786605 62.73,33.22 L62.73,45 L67.29,45 L67.29,33.22 C67.29,30.8893217 66.8593376,28.9766741 65.998,27.482 C65.4153304,26.4939951 64.6933376,25.7466692 63.832,25.24 C63.0466627,24.7839977 62.1346719,24.556 61.096,24.556 C60.0573281,24.556 59.1580038,24.7839977 58.398,25.24 C57.5619958,25.7213357 56.8526696,26.430662 56.27,27.368 L56.27,17.07 L51.71,17.07 L51.71,45 Z M75.41,45.304 C76.676673,45.304 77.778662,45.0253361 78.716,44.468 C79.5013373,44.0119977 80.1726639,43.3913373 80.73,42.606 L80.73,45 L85.29,45 L85.29,31.434 C85.29,30.1166601 85.0113361,28.9703382 84.454,27.995 C83.8966639,27.0196618 83.1113384,26.2406696 82.098,25.658 C80.8059935,24.9233297 79.2353426,24.556 77.386,24.556 C75.5366574,24.556 73.978673,24.9233297 72.712,25.658 C71.6986616,26.2406696 70.9006696,27.0386616 70.318,28.052 C69.988665,28.6093361 69.7606673,29.191997 69.634,29.8 L73.966,31.016 C74.0166669,30.7373319 74.1179992,30.4586681 74.27,30.18 C74.5486681,29.7239977 74.9033312,29.3693346 75.334,29.116 C75.8913361,28.8119985 76.5753293,28.66 77.386,28.66 C78.1966707,28.66 78.8806639,28.824665 79.438,29.154 C79.8686688,29.3820011 80.1916656,29.6923314 80.407,30.085 C80.6223344,30.4776686 80.73,30.9273308 80.73,31.434 L80.73,32.27 L78.298,32.27 C75.9926551,32.27 74.0800076,32.7006624 72.56,33.562 C71.4959947,34.170003 70.6980027,34.9553285 70.166,35.918 C69.6593308,36.7793376 69.406,37.8179939 69.406,39.034 C69.406,40.4020068 69.6973304,41.5799951 70.28,42.568 C70.7613357,43.4040042 71.4073293,44.0626643 72.218,44.544 C73.1046711,45.0506692 74.1686605,45.304 75.41,45.304 Z M77.006,41.2 C75.8913278,41.2 75.0680027,40.9213361 74.536,40.364 C74.1559981,40.0093316 73.966,39.5533361 73.966,38.996 C73.966,38.5906646 74.0546658,38.2486681 74.232,37.97 C74.4346677,37.5899981 74.7639977,37.2733346 75.22,37.02 C75.9800038,36.5893312 77.0059935,36.374 78.298,36.374 L80.73,36.374 L80.73,37.476 C80.73,38.2613373 80.565335,38.9453304 80.236,39.528 C79.9573319,40.0093357 79.5646692,40.4019985 79.058,40.706 C78.4753304,41.035335 77.7913373,41.2 77.006,41.2 Z M88.85,45 L102.15,45 L102.15,40.896 L98.046,40.896 L98.046,17.07 L89.382,17.07 L89.382,21.174 L93.486,21.174 L93.486,40.896 L88.85,40.896 L88.85,45 Z M113.5,45.304 C114.032003,45.304 114.487998,45.1900011 114.868,44.962 C115.197335,44.7846658 115.463332,44.5186684 115.666,44.164 C115.868668,43.8093316 115.982667,43.3533361 116.008,42.796 C115.982667,42.2639973 115.868668,41.8206684 115.666,41.466 C115.463332,41.1113316 115.197335,40.8453342 114.868,40.668 C114.487998,40.4399989 114.032003,40.326 113.5,40.326 C112.967997,40.326 112.512002,40.4399989 112.132,40.668 C111.802665,40.8453342 111.536668,41.1113316 111.334,41.466 C111.105999,41.8460019 111.004667,42.2893308 111.03,42.796 C111.03,43.0746681 111.055333,43.3279989 111.106,43.556 C111.156667,43.7840011 111.232666,43.9866658 111.334,44.164 C111.536668,44.5186684 111.802665,44.7846658 112.132,44.962 C112.512002,45.1900011 112.967997,45.304 113.5,45.304 Z M130.018,45.304 C131.386007,45.304 132.614661,45.0126696 133.704,44.43 C134.869339,43.821997 135.882662,42.9353392 136.744,41.77 C137.174669,41.2126639 137.541998,40.6173365 137.846,39.984 L135.756,39.034 C135.477332,39.6166696 135.160668,40.1486643 134.806,40.63 C134.14733,41.4913376 133.400004,42.1373312 132.564,42.568 C131.803996,42.9733354 130.955338,43.176 130.018,43.176 C129.004662,43.176 128.156003,42.9606688 127.472,42.53 C126.762663,42.0739977 126.230668,41.4026711 125.876,40.516 C125.394664,39.3253274 125.407331,37.2860144 125.914,34.398 C126.370002,31.864654 126.990663,30.0660053 127.776,29.002 C128.35867,28.2419962 129.029996,27.6593354 129.79,27.254 C130.52467,26.8739981 131.335329,26.684 132.222,26.684 C133.235338,26.684 134.083997,26.8993312 134.768,27.33 C135.401337,27.7353354 135.869998,28.3179962 136.174,29.078 C136.452668,29.73667 136.566667,30.4459962 136.516,31.206 L138.834,30.75 C138.859333,29.812662 138.707335,28.9260042 138.378,28.09 C137.947331,27.0259947 137.263338,26.190003 136.326,25.582 C135.261995,24.8979966 133.894008,24.556 132.222,24.556 C130.879327,24.556 129.650672,24.8473304 128.536,25.43 C127.497328,25.9873361 126.585337,26.7726616 125.8,27.786 C124.837329,29.0780065 124.102669,31.1806521 123.596,34.094 C122.987997,37.4126833 123.000664,39.8573255 123.634,41.428 C124.115336,42.6440061 124.875328,43.5939966 125.914,44.278 C126.64867,44.7340023 127.497329,45.0379992 128.46,45.19 C128.941336,45.2660004 129.460664,45.304 130.018,45.304 Z M147.41,45.304 C148.778007,45.304 150.000328,45.0190028 151.077,44.449 C152.153672,43.8789971 153.071996,43.0873384 153.832,42.074 C154.820005,40.807327 155.567331,38.7173479 156.074,35.804 C156.682003,32.333316 156.669336,29.800008 156.036,28.204 C155.554664,27.0386608 154.826338,26.1393365 153.851,25.506 C152.875662,24.8726635 151.678674,24.556 150.26,24.556 L150.222,24.556 C148.853993,24.556 147.638005,24.8346639 146.574,25.392 C145.509995,25.9493361 144.585337,26.7473281 143.8,27.786 C142.837329,29.0780065 142.102669,31.1679856 141.596,34.056 C140.987997,37.526684 141.000664,40.059992 141.634,41.656 C142.090002,42.8213392 142.811995,43.7206635 143.8,44.354 C144.788005,44.9873365 145.991326,45.304 147.41,45.304 Z M147.448,43.176 C146.586662,43.176 145.877336,42.9860019 145.32,42.606 C144.66133,42.2006646 144.180002,41.5926707 143.876,40.782 C143.369331,39.5406605 143.394664,37.4000152 143.952,34.36 C144.382669,31.8519875 144.990663,30.0660053 145.776,29.002 C146.35867,28.2419962 147.029996,27.6593354 147.79,27.254 C148.52467,26.8739981 149.335329,26.684 150.222,26.684 C151.058004,26.684 151.76733,26.8739981 152.35,27.254 C152.983337,27.6593354 153.464665,28.2673293 153.794,29.078 C154.300669,30.3193395 154.275336,32.4599848 153.718,35.5 C153.287331,38.033346 152.666671,39.8193281 151.856,40.858 C151.298664,41.6180038 150.640004,42.2006646 149.88,42.606 C149.14533,42.9860019 148.334671,43.176 147.448,43.176 Z M164.422,45.304 C165.587339,45.304 166.638662,45.0506692 167.576,44.544 C168.564005,44.0373308 169.42533,43.3026715 170.16,42.34 C170.185333,42.2893331 170.210667,42.2513335 170.236,42.226 L169.742,45 L172.136,45 L177.038,17.07 L174.644,17.07 L172.668,28.28 C172.592,28.0519989 172.516,27.8366677 172.44,27.634 C172.034665,26.5699947 171.414004,25.7720027 170.578,25.24 C169.868663,24.7839977 168.982005,24.556 167.918,24.556 C166.67666,24.556 165.536672,24.8219973 164.498,25.354 C163.484662,25.8860027 162.598004,26.6586616 161.838,27.672 C160.849995,28.9893399 160.102669,31.1046521 159.596,34.018 C158.93733,37.7420186 158.93733,40.4399916 159.596,42.112 C160.052002,43.2013388 160.697996,44.0119973 161.534,44.544 C162.319337,45.0506692 163.281994,45.304 164.422,45.304 Z M165.41,43.176 C164.573996,43.176 163.877336,42.9860019 163.32,42.606 C162.66133,42.2006646 162.180002,41.5926707 161.876,40.782 C161.369331,39.5659939 161.394664,37.4253487 161.952,34.36 C162.382669,31.8519875 162.990663,30.0660053 163.776,29.002 C164.35867,28.2419962 165.029996,27.6593354 165.79,27.254 C166.52467,26.8739981 167.322662,26.684 168.184,26.684 C168.944004,26.684 169.589997,26.848665 170.122,27.178 C170.70467,27.5580019 171.160665,28.1406627 171.49,28.926 C171.996669,30.192673 172.060002,31.8393232 171.68,33.866 L171.072,37.286 C170.818665,38.7553407 170.32467,39.9966616 169.59,41.01 C169.032664,41.7193369 168.399337,42.2639981 167.69,42.644 C167.005997,42.9986684 166.246004,43.176 165.41,43.176 Z M184.246,45.304 C185.63934,45.304 186.924994,44.9936698 188.103,44.373 C189.281006,43.7523302 190.300662,42.8593392 191.162,41.694 C191.339334,41.4659989 191.516666,41.2126681 191.694,40.934 L189.566,39.984 C189.49,40.1360008 189.363334,40.3386654 189.186,40.592 C188.52733,41.4533376 187.786337,42.0993312 186.963,42.53 C186.139663,42.9606688 185.234005,43.176 184.246,43.176 C183.156661,43.176 182.24467,42.941669 181.51,42.473 C180.77533,42.004331 180.230668,41.3266711 179.876,40.44 C179.495998,39.4773285 179.432665,37.9953433 179.686,35.994 L191.998,35.994 L192.378,34.018 C192.783335,31.6873217 192.669336,29.7493411 192.036,28.204 C191.554664,27.0386608 190.826338,26.1393365 189.851,25.506 C188.875662,24.8726635 187.678674,24.556 186.26,24.556 C184.86666,24.556 183.638005,24.8346639 182.574,25.392 C181.509995,25.9493361 180.585337,26.7473281 179.8,27.786 C178.837329,29.0780065 178.090003,31.1933186 177.558,34.132 C177.000664,37.4253498 177.025997,39.8319924 177.634,41.352 C178.115336,42.5933395 178.900661,43.5559966 179.99,44.24 C181.104672,44.9493369 182.523325,45.304 184.246,45.304 Z M189.984,33.866 L180.028,33.866 C180.458669,31.5859886 181.04133,29.9646715 181.776,29.002 C182.35867,28.2419962 183.029996,27.6593354 183.79,27.254 C184.52467,26.8739981 185.335329,26.684 186.222,26.684 C187.083338,26.684 187.792664,26.8739981 188.35,27.254 C189.00867,27.6593354 189.489998,28.2673293 189.794,29.078 C190.275336,30.2686726 190.351335,31.7886574 190.022,33.638 L189.984,33.866 Z M201.41,45.304 C203.259343,45.304 204.817327,44.9620034 206.084,44.278 C206.920004,43.8473312 207.578664,43.3153365 208.06,42.682 C208.490669,42.0993304 208.781999,41.4280038 208.934,40.668 C209.086001,39.730662 208.984668,38.8060046 208.63,37.894 C208.173998,36.7793278 207.376006,35.8673369 206.236,35.158 C205.627997,34.7273312 204.62734,34.2840023 203.234,33.828 C202.093994,33.4226646 201.270669,33.055335 200.764,32.726 C200.02933,32.2446643 199.522668,31.6620034 199.244,30.978 C199.041332,30.4966643 198.978,30.0026692 199.054,29.496 C199.155334,29.1159981 199.319999,28.7486684 199.548,28.394 C199.852002,28.0139981 200.269997,27.6846681 200.802,27.406 C201.714005,26.9246643 202.86666,26.684 204.26,26.684 C205.476006,26.684 206.45133,26.9246643 207.186,27.406 C208.022004,27.9380027 208.553999,28.672662 208.782,29.61 L211.062,29.04 C210.986,28.7359985 210.897334,28.4826677 210.796,28.28 C210.365331,27.1653278 209.643338,26.27867 208.63,25.62 C207.515328,24.9106631 206.058676,24.556 204.26,24.556 C202.410657,24.556 200.840006,24.8979966 199.548,25.582 C198.711996,26.0126688 198.066002,26.5446635 197.61,27.178 C197.153998,27.7606696 196.862667,28.4319962 196.736,29.192 C196.558666,30.129338 196.659998,31.0539954 197.04,31.966 C197.470669,33.0553388 198.255994,33.9673297 199.396,34.702 C200.05467,35.1326688 201.067993,35.5759977 202.436,36.032 C203.576006,36.4373354 204.386664,36.804665 204.868,37.134 C205.628004,37.5900023 206.147332,38.1726631 206.426,38.882 C206.628668,39.3633357 206.679334,39.8573308 206.578,40.364 C206.527333,40.7440019 206.362668,41.1113316 206.084,41.466 C205.805332,41.8460019 205.400003,42.1753319 204.868,42.454 C203.930662,42.9353357 202.778007,43.176 201.41,43.176 C200.16866,43.176 199.193337,42.9353357 198.484,42.454 C197.82533,42.0486646 197.344002,41.4786703 197.04,40.744 C196.964,40.5666658 196.913333,40.4020008 196.888,40.25 L194.608,40.82 C194.658667,41.0226677 194.734666,41.2759985 194.836,41.58 C195.292002,42.6946722 196.026662,43.58133 197.04,44.24 C198.154672,44.9493369 199.611324,45.304 201.41,45.304 Z" id="logo"></path>
        </g>
    </g>
</svg>
